<svg version="1.2" xmlns="http://www.w3.org/2000/svg" viewBox="8.918899999999667 11.255299999999806 217.15869999999995 62.465400000000045" width="219" height="63" preserveAspectRatio="none">
	<style>
		.s0 { 
            fill: none; 
            stroke: #b5985c; 
            stroke-width: 1.5px;
            vector-effect: non-scaling-stroke;
        } 
	</style>
	<g id="Layer 1">
		<path class="s0" d="m220.76 69.16h-206.53c-0.41 0-0.75-0.34-0.75-0.75v-51.84c0-0.42 0.34-0.75 0.75-0.75h206.53c0.42 0 0.75 0.33 0.75 0.75v51.84c0 0.41-0.33 0.75-0.75 0.75z"/>
		<path class="s0" d="m211.29 73.72h-187.58c-0.42 0-0.75-0.34-0.75-0.75 0-7.33-5.96-13.29-13.29-13.29-0.42 0-0.75-0.34-0.75-0.75v-32.88c0-0.42 0.33-0.75 0.75-0.75 7.33 0 13.29-5.97 13.29-13.29 0-0.42 0.33-0.75 0.75-0.75h187.58c0.41 0 0.75 0.33 0.75 0.75 0 7.32 5.96 13.29 13.29 13.29 0.41 0 0.75 0.33 0.75 0.75v32.88c0 0.41-0.34 0.75-0.75 0.75-7.33 0-13.29 5.96-13.29 13.29 0 0.41-0.34 0.75-0.75 0.75z"/>
	</g>
</svg>