<svg width="1034" height="522" viewBox="0 0 1034 522" fill="none" xmlns="http://www.w3.org/2000/svg">
<rect x="2.5" y="2.5" width="1029" height="517" stroke="#0B0303" stroke-width="5"/>
<path d="M532 136.409L530.364 137.773C529.848 137.242 529.489 136.629 529.284 135.932C529.08 135.235 528.955 134.447 528.909 133.568C528.864 132.689 528.818 131.712 528.773 130.636C528.727 129.424 528.432 128.42 527.886 127.625C527.341 126.83 526.553 126.216 525.523 125.784C524.492 125.352 523.227 125.076 521.727 124.955V125.182C522.818 125.773 523.621 126.591 524.136 127.636C524.652 128.682 524.909 129.803 524.909 131C524.909 132.364 524.591 133.591 523.955 134.682C523.318 135.773 522.375 136.636 521.125 137.273C519.875 137.909 518.333 138.227 516.5 138.227C514.674 138.227 513.098 137.902 511.773 137.25C510.447 136.606 509.424 135.701 508.705 134.534C507.992 133.375 507.636 132.015 507.636 130.455C507.636 128.894 508.004 127.527 508.739 126.352C509.481 125.178 510.58 124.265 512.034 123.614C513.496 122.962 515.303 122.636 517.455 122.636H519.318C523.205 122.636 526.152 123.295 528.159 124.614C530.167 125.939 531.205 127.932 531.273 130.591C531.303 131.53 531.311 132.367 531.295 133.102C531.28 133.837 531.314 134.477 531.398 135.023C531.481 135.568 531.682 136.03 532 136.409ZM510.045 130.455C510.045 131.508 510.311 132.413 510.841 133.17C511.371 133.936 512.117 134.523 513.08 134.932C514.049 135.341 515.189 135.545 516.5 135.545C517.773 135.545 518.856 135.337 519.75 134.92C520.644 134.511 521.326 133.924 521.795 133.159C522.265 132.394 522.5 131.477 522.5 130.409C522.5 129.629 522.367 128.928 522.102 128.307C521.837 127.686 521.447 127.155 520.932 126.716C520.417 126.277 519.788 125.936 519.045 125.693C518.303 125.458 517.455 125.333 516.5 125.318C514.545 125.318 512.981 125.777 511.807 126.693C510.633 127.61 510.045 128.864 510.045 130.455ZM507.636 149.648C507.636 147.966 508.008 146.515 508.75 145.295C509.5 144.083 510.545 143.148 511.886 142.489C513.235 141.837 514.803 141.511 516.591 141.511C518.379 141.511 519.955 141.837 521.318 142.489C522.689 143.148 523.758 144.064 524.523 145.239C525.295 146.42 525.682 147.799 525.682 149.375C525.682 150.284 525.53 151.182 525.227 152.068C524.924 152.955 524.432 153.761 523.75 154.489C523.076 155.216 522.182 155.795 521.068 156.227C519.955 156.659 518.583 156.875 516.955 156.875H515.818V143.42H518.136V154.148C519.121 154.148 520 153.951 520.773 153.557C521.545 153.17 522.155 152.617 522.602 151.898C523.049 151.186 523.273 150.345 523.273 149.375C523.273 148.307 523.008 147.383 522.477 146.602C521.955 145.83 521.273 145.235 520.432 144.818C519.591 144.402 518.689 144.193 517.727 144.193H516.182C514.864 144.193 513.746 144.42 512.83 144.875C511.92 145.337 511.227 145.977 510.75 146.795C510.28 147.614 510.045 148.564 510.045 149.648C510.045 150.352 510.144 150.989 510.341 151.557C510.545 152.133 510.848 152.629 511.25 153.045C511.659 153.462 512.167 153.784 512.773 154.011L512.045 156.602C511.167 156.33 510.394 155.871 509.727 155.227C509.068 154.583 508.553 153.788 508.182 152.841C507.818 151.894 507.636 150.83 507.636 149.648ZM507.636 168.045C507.636 166.409 508.023 165 508.795 163.818C509.568 162.636 510.633 161.727 511.989 161.091C513.345 160.455 514.894 160.136 516.636 160.136C518.409 160.136 519.973 160.462 521.33 161.114C522.693 161.773 523.758 162.689 524.523 163.864C525.295 165.045 525.682 166.424 525.682 168C525.682 169.227 525.455 170.333 525 171.318C524.545 172.303 523.909 173.11 523.091 173.739C522.273 174.367 521.318 174.758 520.227 174.909V172.227C521.023 172.023 521.727 171.568 522.341 170.864C522.962 170.167 523.273 169.227 523.273 168.045C523.273 167 523 166.083 522.455 165.295C521.917 164.515 521.155 163.905 520.17 163.466C519.193 163.034 518.045 162.818 516.727 162.818C515.379 162.818 514.205 163.03 513.205 163.455C512.205 163.886 511.428 164.492 510.875 165.273C510.322 166.061 510.045 166.985 510.045 168.045C510.045 168.742 510.167 169.375 510.409 169.943C510.652 170.511 511 170.992 511.455 171.386C511.909 171.78 512.455 172.061 513.091 172.227V174.909C512.061 174.758 511.133 174.383 510.307 173.784C509.489 173.193 508.837 172.409 508.352 171.432C507.875 170.462 507.636 169.333 507.636 168.045ZM508 178.83H525.455V192.557H508V189.875H522.955V181.511H508V178.83ZM507.591 202.591C507.591 201.485 507.799 200.481 508.216 199.58C508.64 198.678 509.25 197.962 510.045 197.432C510.848 196.902 511.818 196.636 512.955 196.636C513.955 196.636 514.765 196.833 515.386 197.227C516.015 197.621 516.508 198.148 516.864 198.807C517.22 199.466 517.485 200.193 517.659 200.989C517.841 201.792 517.985 202.598 518.091 203.409C518.227 204.47 518.33 205.33 518.398 205.989C518.473 206.655 518.598 207.14 518.773 207.443C518.947 207.754 519.25 207.909 519.682 207.909H519.773C520.894 207.909 521.765 207.602 522.386 206.989C523.008 206.383 523.318 205.462 523.318 204.227C523.318 202.947 523.038 201.943 522.477 201.216C521.917 200.489 521.318 199.977 520.682 199.682L521.591 197.136C522.652 197.591 523.477 198.197 524.068 198.955C524.667 199.72 525.083 200.553 525.318 201.455C525.561 202.364 525.682 203.258 525.682 204.136C525.682 204.697 525.614 205.341 525.477 206.068C525.348 206.803 525.08 207.511 524.67 208.193C524.261 208.883 523.644 209.455 522.818 209.909C521.992 210.364 520.886 210.591 519.5 210.591H508V207.909H510.364V207.773C509.985 207.591 509.58 207.288 509.148 206.864C508.716 206.439 508.348 205.875 508.045 205.17C507.742 204.466 507.591 203.606 507.591 202.591ZM510 203C510 204.061 510.208 204.955 510.625 205.682C511.042 206.417 511.58 206.97 512.239 207.341C512.898 207.72 513.591 207.909 514.318 207.909H516.773C516.636 207.795 516.511 207.545 516.398 207.159C516.292 206.78 516.197 206.341 516.114 205.841C516.038 205.348 515.97 204.867 515.909 204.398C515.856 203.936 515.811 203.561 515.773 203.273C515.682 202.576 515.534 201.924 515.33 201.318C515.133 200.72 514.833 200.235 514.432 199.864C514.038 199.5 513.5 199.318 512.818 199.318C511.886 199.318 511.182 199.663 510.705 200.352C510.235 201.049 510 201.932 510 203ZM508 213.94H510.5V214.577C510.5 215.099 510.602 215.535 510.807 215.884C511.019 216.232 511.386 216.512 511.909 216.724C512.439 216.944 513.174 217.111 514.114 217.224C515.061 217.346 516.265 217.433 517.727 217.486L525.455 217.804V229.44H508V226.759H522.955V220.349L516.727 220.077C515.295 220.016 514.034 219.887 512.943 219.69C511.86 219.501 510.951 219.209 510.216 218.815C509.481 218.429 508.928 217.914 508.557 217.27C508.186 216.626 508 215.819 508 214.849V213.94ZM507.636 241.452C507.636 239.876 508.011 238.493 508.761 237.304C509.511 236.122 510.561 235.198 511.909 234.531C513.258 233.872 514.833 233.543 516.636 233.543C518.455 233.543 520.042 233.872 521.398 234.531C522.754 235.198 523.807 236.122 524.557 237.304C525.307 238.493 525.682 239.876 525.682 241.452C525.682 243.027 525.307 244.406 524.557 245.588C523.807 246.777 522.754 247.702 521.398 248.361C520.042 249.027 518.455 249.361 516.636 249.361C514.833 249.361 513.258 249.027 511.909 248.361C510.561 247.702 509.511 246.777 508.761 245.588C508.011 244.406 507.636 243.027 507.636 241.452ZM510.045 241.452C510.045 242.649 510.352 243.634 510.966 244.406C511.58 245.179 512.386 245.751 513.386 246.122C514.386 246.493 515.47 246.679 516.636 246.679C517.803 246.679 518.89 246.493 519.898 246.122C520.905 245.751 521.72 245.179 522.341 244.406C522.962 243.634 523.273 242.649 523.273 241.452C523.273 240.255 522.962 239.27 522.341 238.497C521.72 237.724 520.905 237.152 519.898 236.781C518.89 236.41 517.803 236.224 516.636 236.224C515.47 236.224 514.386 236.41 513.386 236.781C512.386 237.152 511.58 237.724 510.966 238.497C510.352 239.27 510.045 240.255 510.045 241.452ZM525.455 266.909H508V264.227H525.455V266.909ZM517.136 265.864H514.636C514.409 265.258 514.208 264.655 514.034 264.057C513.867 263.458 513.735 262.83 513.636 262.17C513.545 261.511 513.5 260.788 513.5 260C513.5 258.023 514.034 256.436 515.102 255.239C516.17 254.049 517.773 253.455 519.909 253.455H525.5V256.136H519.909C519.015 256.136 518.28 256.307 517.705 256.648C517.129 256.989 516.701 257.451 516.42 258.034C516.14 258.617 516 259.273 516 260C516 261.136 516.102 262.163 516.307 263.08C516.519 264.004 516.795 264.932 517.136 265.864ZM508 271.83H525.455V274.511H517.864V276.284L525.455 282.557V286.011L517.045 278.966L508 286.102V282.648L515.364 276.92V274.511H508V271.83ZM507.636 295.389C507.636 293.813 508.011 292.431 508.761 291.241C509.511 290.06 510.561 289.135 511.909 288.469C513.258 287.81 514.833 287.48 516.636 287.48C518.455 287.48 520.042 287.81 521.398 288.469C522.754 289.135 523.807 290.06 524.557 291.241C525.307 292.431 525.682 293.813 525.682 295.389C525.682 296.965 525.307 298.344 524.557 299.526C523.807 300.715 522.754 301.639 521.398 302.298C520.042 302.965 518.455 303.298 516.636 303.298C514.833 303.298 513.258 302.965 511.909 302.298C510.561 301.639 509.511 300.715 508.761 299.526C508.011 298.344 507.636 296.965 507.636 295.389ZM510.045 295.389C510.045 296.586 510.352 297.571 510.966 298.344C511.58 299.116 512.386 299.688 513.386 300.06C514.386 300.431 515.47 300.616 516.636 300.616C517.803 300.616 518.89 300.431 519.898 300.06C520.905 299.688 521.72 299.116 522.341 298.344C522.962 297.571 523.273 296.586 523.273 295.389C523.273 294.192 522.962 293.207 522.341 292.435C521.72 291.662 520.905 291.09 519.898 290.719C518.89 290.348 517.803 290.162 516.636 290.162C515.47 290.162 514.386 290.348 513.386 290.719C512.386 291.09 511.58 291.662 510.966 292.435C510.352 293.207 510.045 294.192 510.045 295.389ZM508 307.392H525.455V314.528C525.455 316.407 525.03 317.9 524.182 319.006C523.333 320.112 522.212 320.665 520.818 320.665C519.758 320.665 518.936 320.35 518.352 319.722C517.777 319.093 517.386 318.286 517.182 317.301C517.091 317.945 516.864 318.57 516.5 319.176C516.136 319.79 515.636 320.297 515 320.699C514.371 321.1 513.598 321.301 512.682 321.301C511.788 321.301 510.989 321.074 510.284 320.619C509.58 320.165 509.023 319.513 508.614 318.665C508.205 317.816 508 316.801 508 315.619V307.392ZM510.455 309.938V315.619C510.455 316.544 510.674 317.267 511.114 317.79C511.553 318.313 512.152 318.574 512.909 318.574C513.811 318.574 514.519 318.313 515.034 317.79C515.557 317.267 515.818 316.544 515.818 315.619V309.938H510.455ZM518.136 309.938V314.528C518.136 315.248 518.235 315.866 518.432 316.381C518.636 316.896 518.924 317.29 519.295 317.562C519.674 317.843 520.121 317.983 520.636 317.983C521.371 317.983 521.947 317.676 522.364 317.062C522.788 316.449 523 315.604 523 314.528V309.938H518.136ZM507.591 330.497C507.591 329.391 507.799 328.387 508.216 327.486C508.64 326.584 509.25 325.868 510.045 325.338C510.848 324.808 511.818 324.543 512.955 324.543C513.955 324.543 514.765 324.74 515.386 325.134C516.015 325.527 516.508 326.054 516.864 326.713C517.22 327.372 517.485 328.099 517.659 328.895C517.841 329.698 517.985 330.505 518.091 331.315C518.227 332.376 518.33 333.236 518.398 333.895C518.473 334.562 518.598 335.046 518.773 335.349C518.947 335.66 519.25 335.815 519.682 335.815H519.773C520.894 335.815 521.765 335.509 522.386 334.895C523.008 334.289 523.318 333.368 523.318 332.134C523.318 330.853 523.038 329.849 522.477 329.122C521.917 328.395 521.318 327.884 520.682 327.588L521.591 325.043C522.652 325.497 523.477 326.103 524.068 326.861C524.667 327.626 525.083 328.459 525.318 329.361C525.561 330.27 525.682 331.164 525.682 332.043C525.682 332.603 525.614 333.247 525.477 333.974C525.348 334.709 525.08 335.418 524.67 336.099C524.261 336.789 523.644 337.361 522.818 337.815C521.992 338.27 520.886 338.497 519.5 338.497H508V335.815H510.364V335.679C509.985 335.497 509.58 335.194 509.148 334.77C508.716 334.346 508.348 333.781 508.045 333.077C507.742 332.372 507.591 331.512 507.591 330.497ZM510 330.906C510 331.967 510.208 332.861 510.625 333.588C511.042 334.323 511.58 334.876 512.239 335.247C512.898 335.626 513.591 335.815 514.318 335.815H516.773C516.636 335.702 516.511 335.452 516.398 335.065C516.292 334.687 516.197 334.247 516.114 333.747C516.038 333.255 515.97 332.774 515.909 332.304C515.856 331.842 515.811 331.467 515.773 331.179C515.682 330.482 515.534 329.83 515.33 329.224C515.133 328.626 514.833 328.141 514.432 327.77C514.038 327.406 513.5 327.224 512.818 327.224C511.886 327.224 511.182 327.569 510.705 328.259C510.235 328.955 510 329.838 510 330.906ZM508 353.892H523V349.256C523 348.21 522.758 347.388 522.273 346.79C521.788 346.191 521.121 345.892 520.273 345.892C519.439 345.892 518.784 346.161 518.307 346.699C517.83 347.244 517.591 347.991 517.591 348.938V354.574H515.091V348.938C515.091 347.756 515.299 346.737 515.716 345.881C516.133 345.025 516.727 344.366 517.5 343.903C518.28 343.441 519.205 343.21 520.273 343.21C521.348 343.21 522.273 343.453 523.045 343.938C523.818 344.422 524.413 345.116 524.83 346.017C525.246 346.926 525.455 348.006 525.455 349.256V356.438H508V353.892ZM508 342.256L516.682 347.21V350.119L508 345.165V342.256Z" fill="black"/>
<path d="M418 202.5C410 169.7 421.333 144.5 428 136C414 132.8 399.167 126.333 393.5 123.5C376.7 111.9 337.5 106.333 320 105C304.4 101 277.5 106.667 266 110C249.6 114 232.167 113 225.5 112C215.5 110 210 109.833 208.5 110C201.7 111.2 192 121.167 188 126C196.333 124.167 214.1 120.1 218.5 118.5C222.9 116.9 222 120.167 221 122C215.4 124.8 191.667 130.167 180.5 132.5C168.5 134.5 152.5 141 146 144L92.5 169C94.5 177.8 104 178 108.5 177C114 174.5 134.5 167 146 163.5C152 160.3 195.833 154.833 217 152.5C231 152.5 239 161 246.5 167.5L254.5 160.5C258.9 160.5 258 163.167 257 164.5C239.4 180.9 219 189.333 211 191.5C197.8 193.5 192.5 203.667 191.5 208.5C190.3 224.5 196.667 227.167 200 226.5C206 225.3 213.5 216.5 234.5 206.5C241.7 204.9 262.833 196.833 272.5 193C315 175.5 309.5 177.5 328.5 160.5C343.7 146.9 366.167 145.167 375.5 146C380.3 147.2 378.5 149.5 377 150.5H371C359.8 148.9 342.333 156.5 335 160.5C351.4 173.7 397.167 194 418 202.5Z" fill="#0F1D3A"/>
<path d="M185.5 160.5L159 165C156 168 146 193 145 197C144.314 199.742 137.461 219.445 133.626 231.635C132.545 235.072 132.568 239.242 135.519 241.309C139.901 244.378 144.619 240.881 146 239.5C149 236.5 158 222.5 162.5 200C163.055 197.227 178.333 172.5 185.5 160.5Z" fill="#0F1D3A"/>
<path d="M193.5 158.5C214.7 156.1 223.667 157.5 226.5 158.5C224.5 159 220.5 160.4 220.5 162C220.5 164 218.5 169 217 171.5C215.8 173.5 216.5 181 217 184.5L204.5 188C203 186.5 203 170.5 204.5 165C204.745 164.102 204.827 163.41 204.791 162.886C204.598 160.141 201.034 163.455 199.932 165.977C197.812 170.831 194.415 177.276 191.5 181C189.907 183.035 187.667 186.833 186.5 189L180.975 222.545C179.993 228.507 179.053 234.667 175.841 239.785C171.027 247.454 165.467 246.386 163.5 243.5L165.5 216.5C167 201.5 170.5 198 172 194.5L193.5 158.5Z" fill="#0F1D3A"/>
<path d="M223.5 216.5L213.5 222.5L214.406 227.032C214.801 229.006 215.236 231.05 216.465 232.645C218.238 234.946 220.058 234.372 221.483 232.959C223.165 231.291 223.5 228.771 223.5 226.402V216.5Z" fill="#0F1D3A"/>
<path d="M433.889 138.543C434.366 138.606 435.175 139.048 436.077 140.751C436.95 142.398 437.692 144.844 438.205 147.995C439.227 154.27 439.269 162.882 438.032 172.312C436.795 181.741 434.534 190.05 431.927 195.85C430.619 198.762 429.271 200.934 428.003 202.3C426.692 203.712 425.797 203.931 425.319 203.869C424.842 203.806 424.033 203.364 423.131 201.661C422.258 200.014 421.517 197.568 421.003 194.417C419.981 188.141 419.939 179.53 421.176 170.1C422.413 160.671 424.675 152.361 427.281 146.562C428.59 143.65 429.937 141.478 431.205 140.112C432.516 138.699 433.411 138.481 433.889 138.543Z" stroke="#0F1D3A" stroke-width="4"/>
<path d="M341.948 379.293C329.645 380.588 321.725 380.576 316.858 380.179C317.413 379.679 318.156 378.802 318.162 377.569C318.163 377.336 318.235 376.852 318.437 376.11C318.629 375.405 318.905 374.582 319.236 373.721C319.903 371.985 320.737 370.228 321.413 369.112C321.969 368.195 322.179 366.949 322.281 365.887C322.392 364.732 322.405 363.405 322.365 362.081C322.309 360.177 322.14 358.185 321.957 356.545L330.961 354.067C331.015 354.418 331.067 354.826 331.113 355.286C331.283 356.991 331.366 359.23 331.356 361.626C331.335 366.489 330.932 371.627 330.247 374.095C329.965 375.111 329.824 376.042 329.879 376.874C329.914 377.408 330.043 378.066 330.451 378.649C330.915 379.311 331.61 379.691 332.358 379.765C333.016 379.83 333.594 379.651 333.999 379.475C334.425 379.291 334.819 379.039 335.165 378.778C336.488 377.781 337.879 376.058 338.576 374.481C340.691 369.694 344.036 363.442 346.813 359.926C348.526 357.758 350.847 353.846 352.035 351.663L352.194 351.37L352.25 351.041L357.92 317.521C358.945 311.458 359.868 305.738 362.845 301.04C365.076 297.52 367.234 296.375 368.703 296.165C369.88 295.996 370.837 296.38 371.457 296.962L369.407 323.091C368.64 330.447 367.404 334.881 366.222 337.858C365.629 339.349 365.039 340.506 364.491 341.523C363.989 342.455 363.443 343.408 363.026 344.342L341.948 379.293ZM355.125 376.529C358.583 370.847 363.088 363.508 366.948 357.094C369.36 353.087 371.573 349.351 373.222 346.439C374.045 344.984 374.738 343.717 375.247 342.715C375.5 342.215 375.718 341.762 375.886 341.375C376.038 341.024 376.205 340.604 376.285 340.212C378.548 329.144 381.908 320.19 385.057 313.655C388.235 307.062 391.135 303.061 392.404 301.803C392.949 301.263 394.231 300.25 395.773 299.719C397.253 299.21 398.812 299.181 400.33 300.254C401.235 300.893 401.763 301.886 401.942 303.22C402.124 304.581 401.915 306.175 401.43 307.694C399.493 313.759 396.793 321.701 394.484 328.488C392.202 335.196 390.249 340.922 389.874 342.393C389.411 344.212 386.698 351.3 383.651 358.451C382.143 361.99 380.581 365.479 379.216 368.256C378.533 369.646 377.909 370.836 377.375 371.757C377.058 372.303 376.8 372.702 376.606 372.977L355.125 376.529ZM315.44 313.154C315.45 310.843 315.82 309.074 316.888 308.024C317.445 307.476 317.806 307.376 317.937 307.371C317.952 307.37 318.292 307.334 318.913 308.148C319.807 309.318 320.174 310.892 320.574 312.939L321.19 316.092L315.413 319.524L315.44 313.154ZM244.7 432.52C234.634 433.803 224.325 434.127 216.922 432.195L216.752 432.151L216.577 432.136C207.906 431.438 193.828 429.664 179.854 426.616C165.798 423.551 152.163 419.262 144.141 413.672L144.025 413.591L143.899 413.527C138.551 410.824 125.185 404.904 111.897 401.433C118.625 391.237 127.388 368.514 121.612 339.533C131.987 343.9 146.737 350.432 161.038 357.428C175.591 364.547 189.511 372.065 197.932 378.226C194.358 379.973 189.547 382.041 184.458 383.692C177.83 385.842 171.025 387.186 165.905 386.432L165.765 386.411L159.017 386.381L158.511 386.715C158.011 387.046 157.451 387.504 156.989 388.068C156.545 388.609 156.044 389.429 155.994 390.455C155.938 391.607 156.467 392.611 157.346 393.346C158.155 394.022 159.268 394.49 160.6 394.829L160.753 394.868L160.908 394.882L161.86 394.959C166.808 395.306 174.505 395.006 182.848 393.095C191.75 391.055 201.527 387.147 209.484 380.09C219.171 371.498 222.324 367.988 228.44 364.331C234.602 360.645 243.683 356.879 265.041 348.193C269.871 346.302 277.557 343.371 284.931 340.717C292.365 338.042 299.329 335.706 302.779 334.954L303.001 334.906L303.206 334.81C313.86 329.793 321.102 325.06 326.41 321.454C329.085 319.637 331.178 318.169 333.001 317.062C334.826 315.954 336.178 315.336 337.324 315.112C338.237 314.934 339.867 315.146 341.25 317.086C342.693 319.111 343.971 323.185 343.379 330.885C342.42 335.186 337.552 344.35 325.498 346.123L325.386 346.14L325.275 346.169C316.998 348.372 296.259 356.859 278.316 373.434L278.186 373.554L278.079 373.696C277.732 374.154 277.377 374.745 277.138 375.406C276.904 376.051 276.721 376.927 276.94 377.858C277.181 378.879 277.846 379.713 278.836 380.235C279.751 380.718 280.881 380.908 282.147 380.913L282.899 380.917L283.466 380.424L290.172 374.608C297.186 380.875 305.593 389.015 319.612 389.075L319.722 389.076L319.831 389.065C330.433 387.942 346.715 386.06 361.106 384.059C368.299 383.06 375.039 382.028 380.37 381.044C383.034 380.552 385.368 380.068 387.241 379.602C388.935 379.18 390.406 378.733 391.399 378.251C402.848 374.809 422.958 367.561 428.836 364.962C430.849 364.556 433.868 364.438 436.541 365.31C438.783 366.042 440.742 367.437 441.775 370.028L389.744 394.067L389.745 394.068C383.266 397.024 367.444 403.356 355.713 405.259L355.673 405.266L355.633 405.274C350.028 406.42 341.27 408.312 333.203 410.268C329.171 411.246 325.296 412.243 322.067 413.173C318.886 414.09 316.186 414.981 314.602 415.765L314.04 416.044L313.737 416.593C313.433 417.145 313.122 417.827 312.913 418.535C312.72 419.193 312.538 420.121 312.752 421.044C312.867 421.541 313.109 422.08 313.56 422.538C314.016 423.001 314.581 423.274 315.162 423.399C316.235 423.631 317.438 423.386 318.649 422.951C320.721 422.208 326.138 420.843 332.222 419.412C335.763 418.58 339.476 417.741 342.78 417.006C341.318 418.488 339.678 420.044 337.968 421.502C336.125 423.072 334.232 424.501 332.42 425.598C330.616 426.69 329.001 427.386 327.663 427.629C326.372 427.744 321.135 427.581 311.347 425.579L311.299 425.569L311.251 425.562C304.413 424.506 286.71 423.413 269.972 427.419L269.93 427.428L269.889 427.44C264.218 429.057 254.708 431.244 244.7 432.52Z" stroke="#0F1D3A" stroke-width="4"/>
<ellipse cx="107.099" cy="367.451" rx="10.5" ry="34.9426" transform="rotate(-172.279 107.099 367.451)" fill="#0F1D3A"/>
<path d="M932 193.876C924 161.076 935.333 135.876 942 127.376C928 124.176 913.167 117.709 907.5 114.876C890.7 103.276 851.5 97.7091 834 96.3758C818.4 92.3758 791.5 98.0424 780 101.376C763.6 105.376 746.167 104.376 739.5 103.376C729.5 101.376 724 101.209 722.5 101.376C715.7 102.576 706 112.542 702 117.376C710.333 115.542 728.1 111.476 732.5 109.876C736.9 108.276 736 111.542 735 113.376C729.4 116.176 705.667 121.542 694.5 123.876C682.5 125.876 666.5 132.376 660 135.376L606.5 160.376C608.5 169.176 618 169.376 622.5 168.376C628 165.876 648.5 158.376 660 154.876C666 151.676 709.833 146.209 731 143.876C745 143.876 753 152.376 760.5 158.876L768.5 151.876C772.9 151.876 772 154.542 771 155.876C753.4 172.276 733 180.709 725 182.876C711.8 184.876 706.5 195.042 705.5 199.876C704.3 215.876 710.667 218.542 714 217.876C720 216.676 727.5 207.876 748.5 197.876C755.7 196.276 776.833 188.209 786.5 184.376C829 166.876 823.5 168.876 842.5 151.876C857.7 138.276 880.167 136.542 889.5 137.376C894.3 138.576 892.5 140.876 891 141.876H885C873.8 140.276 856.333 147.876 849 151.876C865.4 165.076 911.167 185.376 932 193.876Z" fill="#740001"/>
<path d="M699.5 151.876L673 156.376C670 159.376 660 184.376 659 188.376C658.314 191.118 651.461 210.821 647.626 223.011C646.545 226.448 646.568 230.618 649.519 232.685C653.901 235.753 658.619 232.257 660 230.876C663 227.876 672 213.876 676.5 191.376C677.055 188.602 692.333 163.876 699.5 151.876Z" fill="#740001"/>
<path d="M707.5 149.876C728.7 147.476 737.667 148.876 740.5 149.876C738.5 150.376 734.5 151.776 734.5 153.376C734.5 155.376 732.5 160.376 731 162.876C729.8 164.876 730.5 172.376 731 175.876L718.5 179.376C717 177.876 717 161.876 718.5 156.376C718.745 155.477 718.827 154.786 718.791 154.262C718.598 151.516 715.034 154.831 713.932 157.353C711.812 162.206 708.415 168.652 705.5 172.376C703.907 174.411 701.667 178.209 700.5 180.376L694.975 213.921C693.993 219.883 693.053 226.043 689.841 231.161C685.027 238.83 679.467 237.761 677.5 234.876L679.5 207.876C681 192.876 684.5 189.376 686 185.876L707.5 149.876Z" fill="#740001"/>
<path d="M737.5 207.876L727.5 213.876L728.406 218.407C728.801 220.381 729.236 222.426 730.465 224.021C732.238 226.321 734.058 225.748 735.483 224.335C737.165 222.667 737.5 220.147 737.5 217.778V207.876Z" fill="#740001"/>
<path d="M947.889 129.919C948.366 129.982 949.175 130.424 950.077 132.127C950.95 133.774 951.692 136.22 952.205 139.37C953.227 145.646 953.269 154.258 952.032 163.687C950.795 173.117 948.534 181.426 945.927 187.226C944.619 190.138 943.271 192.309 942.003 193.676C940.692 195.088 939.797 195.307 939.319 195.244C938.842 195.182 938.033 194.739 937.131 193.037C936.258 191.389 935.517 188.944 935.003 185.793C933.981 179.517 933.939 170.906 935.176 161.476C936.413 152.047 938.675 143.737 941.281 137.937C942.59 135.026 943.937 132.854 945.205 131.488C946.516 130.075 947.411 129.857 947.889 129.919Z" stroke="#740001" stroke-width="4"/>
<path d="M855.948 370.669C843.645 371.964 835.725 371.952 830.858 371.554C831.413 371.054 832.156 370.178 832.162 368.945C832.163 368.712 832.235 368.228 832.437 367.486C832.629 366.78 832.905 365.958 833.236 365.097C833.903 363.361 834.737 361.604 835.413 360.488C835.969 359.57 836.179 358.325 836.281 357.262C836.392 356.107 836.405 354.781 836.365 353.457C836.309 351.553 836.14 349.56 835.957 347.921L844.961 345.442C845.015 345.794 845.067 346.202 845.113 346.662C845.283 348.367 845.366 350.606 845.356 353.002C845.335 357.865 844.932 363.003 844.247 365.471C843.965 366.487 843.824 367.418 843.879 368.249C843.914 368.784 844.043 369.441 844.451 370.024C844.915 370.687 845.61 371.067 846.358 371.141C847.016 371.206 847.594 371.027 847.999 370.851C848.425 370.666 848.819 370.415 849.165 370.154C850.488 369.157 851.879 367.434 852.576 365.856C854.691 361.07 858.036 354.818 860.813 351.302C862.526 349.134 864.847 345.222 866.035 343.039L866.194 342.746L866.25 342.417L871.92 308.896C872.945 302.834 873.868 297.114 876.845 292.416C879.076 288.896 881.234 287.751 882.703 287.54C883.88 287.372 884.837 287.756 885.457 288.338L883.407 314.467C882.64 321.823 881.404 326.257 880.222 329.234C879.629 330.725 879.039 331.882 878.491 332.899C877.989 333.831 877.443 334.783 877.026 335.718L855.948 370.669ZM869.125 367.904C872.583 362.223 877.088 354.884 880.948 348.47C883.36 344.463 885.573 340.727 887.222 337.814C888.045 336.36 888.738 335.093 889.247 334.091C889.5 333.591 889.718 333.138 889.886 332.751C890.038 332.4 890.205 331.979 890.285 331.588C892.548 320.52 895.908 311.565 899.057 305.031C902.235 298.437 905.135 294.437 906.404 293.179C906.949 292.639 908.231 291.626 909.773 291.095C911.253 290.586 912.812 290.557 914.33 291.629C915.235 292.269 915.763 293.262 915.942 294.595C916.124 295.957 915.915 297.551 915.43 299.07C913.493 305.135 910.793 313.077 908.484 319.864C906.202 326.572 904.249 332.298 903.874 333.769C903.411 335.588 900.698 342.676 897.651 349.826C896.143 353.366 894.581 356.854 893.216 359.631C892.533 361.022 891.909 362.212 891.375 363.132C891.058 363.679 890.8 364.078 890.606 364.353L869.125 367.904ZM829.44 304.53C829.45 302.219 829.82 300.45 830.888 299.4C831.445 298.852 831.806 298.751 831.937 298.747C831.952 298.746 832.292 298.71 832.913 299.524C833.807 300.694 834.174 302.268 834.574 304.315L835.19 307.468L829.413 310.9L829.44 304.53ZM758.7 423.895C748.634 425.178 738.325 425.503 730.922 423.57L730.752 423.527L730.577 423.512C721.906 422.814 707.828 421.04 693.854 417.992C679.798 414.927 666.163 410.638 658.141 405.048L658.025 404.967L657.899 404.903C652.551 402.2 639.185 396.28 625.897 392.809C632.625 382.613 641.388 359.889 635.612 330.909C645.987 335.276 660.737 341.808 675.038 348.804C689.591 355.923 703.511 363.441 711.932 369.602C708.358 371.349 703.547 373.417 698.458 375.067C691.83 377.218 685.025 378.561 679.905 377.807L679.765 377.786L673.017 377.757L672.511 378.091C672.011 378.422 671.451 378.88 670.989 379.444C670.545 379.985 670.044 380.805 669.994 381.831C669.938 382.982 670.467 383.987 671.346 384.722C672.155 385.397 673.268 385.865 674.6 386.205L674.753 386.243L674.908 386.258L675.86 386.335C680.808 386.681 688.505 386.382 696.848 384.471C705.75 382.431 715.527 378.523 723.484 371.465C733.171 362.873 736.324 359.364 742.44 355.706C748.602 352.021 757.683 348.255 779.041 339.569C783.871 337.678 791.557 334.746 798.931 332.093C806.365 329.418 813.329 327.081 816.779 326.33L817.001 326.282L817.206 326.186C827.86 321.169 835.102 316.436 840.41 312.83C843.085 311.012 845.178 309.545 847.001 308.438C848.826 307.33 850.178 306.712 851.324 306.488C852.237 306.31 853.867 306.522 855.25 308.462C856.693 310.487 857.971 314.561 857.379 322.26C856.42 326.562 851.552 335.726 839.498 337.499L839.386 337.516L839.275 337.545C830.998 339.748 810.259 348.234 792.316 364.81L792.186 364.93L792.079 365.071C791.732 365.53 791.377 366.121 791.138 366.782C790.904 367.426 790.721 368.303 790.94 369.234C791.181 370.255 791.846 371.089 792.836 371.611C793.751 372.093 794.881 372.284 796.147 372.289L796.899 372.293L797.466 371.8L804.172 365.984C811.186 372.251 819.593 380.391 833.612 380.451L833.722 380.452L833.831 380.44C844.433 379.318 860.715 377.435 875.106 375.435C882.299 374.435 889.039 373.404 894.37 372.42C897.034 371.928 899.368 371.444 901.241 370.978C902.935 370.556 904.406 370.109 905.399 369.627C916.848 366.185 936.958 358.937 942.836 356.338C944.849 355.931 947.868 355.813 950.541 356.686C952.783 357.417 954.742 358.813 955.775 361.404L903.744 385.443L903.745 385.444C897.266 388.4 881.444 394.732 869.713 396.635L869.673 396.641L869.633 396.65C864.028 397.796 855.27 399.688 847.203 401.644C843.171 402.621 839.296 403.618 836.067 404.549C832.886 405.465 830.186 406.357 828.602 407.141L828.04 407.42L827.737 407.969C827.433 408.521 827.122 409.203 826.913 409.911C826.72 410.569 826.538 411.497 826.752 412.42C826.867 412.917 827.109 413.455 827.56 413.914C828.016 414.377 828.581 414.649 829.162 414.775C830.235 415.007 831.438 414.762 832.649 414.327C834.721 413.584 840.138 412.218 846.222 410.788C849.763 409.956 853.476 409.117 856.78 408.382C855.318 409.864 853.678 411.42 851.968 412.878C850.125 414.448 848.232 415.877 846.42 416.974C844.616 418.066 843.001 418.762 841.663 419.005C840.372 419.12 835.135 418.957 825.347 416.955L825.299 416.945L825.251 416.938C818.413 415.882 800.71 414.789 783.972 418.795L783.93 418.804L783.889 418.816C778.218 420.433 768.708 422.62 758.7 423.895Z" stroke="#740001" stroke-width="4"/>
<ellipse cx="621.099" cy="358.827" rx="10.5" ry="34.9426" transform="rotate(-172.279 621.099 358.827)" fill="#740001"/>
</svg>
